<?xml version="1.0" encoding="utf-8"?>
<!-- Generator: Adobe Illustrator 17.0.0, SVG Export Plug-In . SVG Version: 6.00 Build 0)  -->
<!DOCTYPE svg PUBLIC "-//W3C//DTD SVG 1.1//EN" "http://www.w3.org/Graphics/SVG/1.1/DTD/svg11.dtd">
<svg version="1.1" id="Слой_1" xmlns="http://www.w3.org/2000/svg" xmlns:xlink="http://www.w3.org/1999/xlink" x="0px" y="0px"
	 width="227.5px" height="235.375px" viewBox="0 0 227.5 235.375" enable-background="new 0 0 227.5 235.375" xml:space="preserve">
<g>
	<path fill="#CC1B1B" d="M139.073,228.232c-13.447,7.89-35.54,8.044-49.096,0.343l-59.3-33.686
		c-13.556-7.701-24.737-26.757-24.846-42.347L5.354,84.345c-0.109-15.59,10.804-34.801,24.251-42.69L88.427,7.143
		c13.447-7.89,35.54-8.044,49.096-0.343l59.3,33.686c13.556,7.701,24.737,26.757,24.846,42.347l0.477,68.198
		c0.109,15.59-10.804,34.801-24.251,42.69L139.073,228.232z"/>
</g>
<g opacity="0.5">
	<path fill="none" stroke="#000000" stroke-width="4" stroke-miterlimit="10" d="M138.826,226.067
		c-13.447,7.89-35.556,8.072-49.132,0.406l-57.541-32.492c-13.576-7.666-24.74-26.694-24.809-42.284l-0.293-66.08
		c-0.069-15.59,10.876-34.801,24.323-42.691L88.838,9.211c13.447-7.89,35.556-8.072,49.132-0.406l57.54,32.492
		c13.576,7.666,24.74,26.694,24.809,42.284l0.293,66.08c0.069,15.59-10.876,34.801-24.323,42.691L138.826,226.067z"/>
</g>
<text transform="matrix(1 0 0 1 62.9443 155.1875)" font-family="'Lato-Regular'" font-size="28">  About</text>
<g>
	<g>
		<path fill="#231F20" d="M139.16,65.018l-5.413-1.084c-0.272-0.783-0.591-1.541-0.947-2.276l3.064-4.597
			c0.935-1.4,0.748-3.266-0.441-4.455l-3.397-3.396c-0.683-0.683-1.586-1.035-2.498-1.035c-0.678,0-1.361,0.195-1.957,0.593
			l-4.597,3.064c-0.736-0.357-1.495-0.674-2.278-0.946l-1.083-5.413c-0.329-1.652-1.779-2.84-3.462-2.84h-4.804
			c-1.683,0-3.133,1.188-3.462,2.84l-1.084,5.413c-0.783,0.272-1.542,0.591-2.276,0.946l-4.597-3.064
			c-0.598-0.398-1.279-0.593-1.957-0.593c-0.912,0-1.816,0.352-2.499,1.035l-3.397,3.396c-1.19,1.19-1.376,3.055-0.441,4.455
			l3.064,4.597c-0.357,0.735-0.674,1.495-0.947,2.277l-5.412,1.082c-1.652,0.33-2.84,1.78-2.84,3.462v4.804
			c0,1.683,1.188,3.133,2.84,3.462l5.412,1.085c0.272,0.783,0.591,1.541,0.947,2.276l-3.064,4.597
			c-0.934,1.4-0.748,3.265,0.441,4.455l3.397,3.398c0.683,0.682,1.586,1.034,2.499,1.034c0.678,0,1.36-0.195,1.957-0.593
			l4.597-3.064c0.736,0.357,1.495,0.674,2.278,0.946l1.083,5.413c0.329,1.652,1.779,2.84,3.462,2.84h4.804
			c1.683,0,3.133-1.187,3.462-2.84l1.085-5.413c0.783-0.272,1.542-0.591,2.276-0.946l4.597,3.064
			c0.598,0.398,1.279,0.593,1.957,0.593c0.912,0,1.816-0.352,2.498-1.034l3.397-3.398c1.19-1.19,1.376-3.055,0.441-4.455
			l-3.064-4.597c0.357-0.737,0.674-1.496,0.947-2.278l5.413-1.083c1.652-0.329,2.84-1.779,2.84-3.462v-4.804
			C142,66.798,140.812,65.348,139.16,65.018z M133.055,74.367c-1.226,0.245-2.231,1.121-2.641,2.302
			c-0.228,0.652-0.491,1.284-0.79,1.898c-0.546,1.126-0.455,2.457,0.24,3.499l3.064,4.597l-3.397,3.397l-4.597-3.064
			c-0.59-0.393-1.273-0.593-1.959-0.593c-0.524,0-1.05,0.117-1.538,0.352c-0.612,0.297-1.245,0.564-1.898,0.792
			c-1.181,0.41-2.057,1.416-2.302,2.642l-1.084,5.414h-4.804l-1.083-5.414c-0.245-1.226-1.121-2.232-2.302-2.642
			c-0.652-0.228-1.285-0.492-1.898-0.79c-0.488-0.237-1.014-0.353-1.54-0.353c-0.686,0-1.369,0.2-1.959,0.593L97.97,90.06
			l-3.397-3.397l3.064-4.597c0.693-1.042,0.785-2.371,0.241-3.497c-0.296-0.612-0.564-1.245-0.791-1.898
			c-0.41-1.181-1.416-2.057-2.642-2.302l-5.412-1.084l-0.002-4.804l5.414-1.083c1.226-0.244,2.231-1.12,2.642-2.301
			c0.228-0.652,0.492-1.285,0.79-1.898c0.546-1.126,0.455-2.457-0.24-3.499l-3.064-4.597l3.397-3.397l4.597,3.064
			c0.59,0.393,1.272,0.593,1.959,0.593c0.524,0,1.05-0.117,1.538-0.352c0.612-0.297,1.245-0.565,1.898-0.792
			c1.181-0.411,2.057-1.416,2.302-2.642l1.084-5.413l4.804-0.001l1.083,5.414c0.245,1.226,1.121,2.231,2.302,2.642
			c0.652,0.227,1.285,0.492,1.898,0.789c0.488,0.237,1.014,0.354,1.54,0.354c0.686,0,1.369-0.2,1.959-0.593l4.597-3.064l3.397,3.397
			l-3.064,4.597c-0.693,1.041-0.785,2.371-0.241,3.497c0.297,0.612,0.564,1.245,0.792,1.898c0.41,1.181,1.416,2.057,2.641,2.302
			l5.412,1.084l0.002,4.804L133.055,74.367z M113.75,58.523c-6.825,0-12.359,5.535-12.359,12.36s5.535,12.359,12.359,12.359
			c6.824,0,12.359-5.534,12.359-12.359S120.575,58.523,113.75,58.523z M113.75,81.697c-5.971,0-10.814-4.844-10.814-10.815
			s4.843-10.815,10.814-10.815c5.971,0,10.814,4.844,10.814,10.815S119.721,81.697,113.75,81.697z M113.75,63.82
			c-3.902,0-7.063,3.16-7.063,7.063c0,3.902,3.161,7.063,7.063,7.063c3.902,0,7.062-3.161,7.062-7.063
			C120.812,66.98,117.652,63.82,113.75,63.82z M113.75,76.179c-2.924,0-5.297-2.372-5.297-5.297s2.373-5.297,5.297-5.297
			c2.924,0,5.297,2.373,5.297,5.297S116.674,76.179,113.75,76.179z"/>
	</g>
</g>
</svg>
