<?xml version="1.0" encoding="utf-8"?>
<!-- Generator: Adobe Illustrator 17.0.0, SVG Export Plug-In . SVG Version: 6.00 Build 0)  -->
<!DOCTYPE svg PUBLIC "-//W3C//DTD SVG 1.1//EN" "http://www.w3.org/Graphics/SVG/1.1/DTD/svg11.dtd">
<svg version="1.1" id="Слой_1" xmlns="http://www.w3.org/2000/svg" xmlns:xlink="http://www.w3.org/1999/xlink" x="0px" y="0px"
	 width="227.5px" height="235.375px" viewBox="0 0 227.5 235.375" enable-background="new 0 0 227.5 235.375" xml:space="preserve">
<g>
	<path fill="#CC1B1B" d="M139.073,228.232c-13.447,7.89-35.54,8.044-49.096,0.343l-59.3-33.686
		c-13.556-7.701-24.737-26.757-24.846-42.347L5.354,84.345c-0.109-15.59,10.804-34.801,24.251-42.69L88.427,7.143
		c13.447-7.89,35.54-8.044,49.096-0.343l59.3,33.686c13.556,7.701,24.737,26.757,24.846,42.347l0.477,68.198
		c0.109,15.59-10.804,34.801-24.251,42.69L139.073,228.232z"/>
</g>
<g opacity="0.5">
	<path fill="none" stroke="#000000" stroke-width="4" stroke-miterlimit="10" d="M138.826,226.067
		c-13.447,7.89-35.556,8.072-49.132,0.406l-57.541-32.492c-13.576-7.666-24.74-26.694-24.809-42.284l-0.293-66.08
		c-0.069-15.59,10.876-34.801,24.323-42.691L88.838,9.211c13.447-7.89,35.556-8.072,49.132-0.406l57.54,32.492
		c13.576,7.666,24.74,26.694,24.809,42.284l0.293,66.08c0.069,15.59-10.876,34.801-24.323,42.691L138.826,226.067z"/>
</g>
<text transform="matrix(1 0 0 1 62.9443 155.1875)" font-family="'Lato-Regular'" font-size="28">   Blog</text>
<g>
	<path d="M138.029,37.209c-2.982-2.977-6.907-4.677-10.778-4.677c-3.262,0-6.269,1.211-8.462,3.402l-8.822,8.889
		c-0.027,0.025-0.058,0.042-0.085,0.069c-0.014,0.014-0.023,0.033-0.037,0.048l0.004,0.004L91.126,63.809
		c-0.862,0.857-1.489,1.926-1.836,3.09l-4.257,15.42c-0.005,0.043-0.283,1.255-0.283,1.869c0,3.503,2.844,6.344,6.353,6.344
		c0.697,0,2.048-0.333,2.097-0.34l15.366-4.039c1.167-0.347,2.228-0.977,3.09-1.841l27.664-27.881
		C144.352,51.394,143.785,42.955,138.029,37.209z M113.776,75.663c-0.148-1.637-0.611-3.241-1.303-4.764l17.136-17.134
		c1.048,3.31,0.511,6.773-1.786,9.07c-0.014,0.014-0.032,0.023-0.046,0.037l0.023,0.023l-14.006,14.118
		C113.796,76.564,113.817,76.121,113.776,75.663z M111.564,69.247c-0.676-1.112-1.444-2.183-2.396-3.133
		c-1.108-1.108-2.379-1.974-3.705-2.705l17.277-17.275c1.354,0.601,2.655,1.458,3.802,2.605c0.979,0.977,1.738,2.071,2.32,3.209
		L111.564,69.247z M103.756,62.553c-1.678-0.676-3.437-1.062-5.199-1.085l13.962-14.069c2.136-2.085,5.25-2.685,8.316-1.924
		L103.756,62.553z M92.305,86.678c-0.198,0.046-0.813,0.201-1.23,0.229c-1.49-0.016-2.699-1.228-2.699-2.718
		c0.021-0.302,0.143-0.827,0.184-1.02l1.908-6.914c2.071-0.057,4.301,0.751,6.053,2.506c1.781,1.779,2.618,4.052,2.526,6.146
		L92.305,86.678z M100.834,84.437c-0.044-2.431-1.034-4.962-3.03-6.955c-1.888-1.892-4.359-2.982-6.825-3.08l1.805-6.539
		c0.131-0.435,0.39-0.864,0.708-1.241c3.636-2.601,9.227-1.834,13.112,2.054c4.108,4.108,4.744,10.124,1.579,13.717
		c-0.21,0.11-0.423,0.216-0.651,0.285L100.834,84.437z M136.755,53.871l-3.053,3.076c0-0.409,0.05-0.803,0.012-1.221
		c-0.318-3.507-1.956-6.898-4.609-9.549c-2.952-2.954-6.869-4.65-10.746-4.66l3.004-3.027c1.499-1.499,3.595-2.331,5.889-2.331
		c2.919,0,5.914,1.319,8.216,3.616c2.163,2.159,3.453,4.841,3.636,7.554C139.274,49.862,138.44,52.184,136.755,53.871z"/>
</g>
</svg>
