<?xml version="1.0" encoding="utf-8"?>
<!-- Generator: Adobe Illustrator 17.0.0, SVG Export Plug-In . SVG Version: 6.00 Build 0)  -->
<!DOCTYPE svg PUBLIC "-//W3C//DTD SVG 1.1//EN" "http://www.w3.org/Graphics/SVG/1.1/DTD/svg11.dtd">
<svg version="1.1" id="Слой_1" xmlns="http://www.w3.org/2000/svg" xmlns:xlink="http://www.w3.org/1999/xlink" x="0px" y="0px"
	 width="227.5px" height="235.375px" viewBox="0 0 227.5 235.375" enable-background="new 0 0 227.5 235.375" xml:space="preserve">
<g>
	<path fill="none" d="M192.666-3090.131l-13.08-13.083c-0.966-0.966-2.276-1.509-3.641-1.509h-45.932
		c-1.366,0-2.676,0.543-3.641,1.509l-13.08,13.083c-1.011,1.009-1.516,2.341-1.511,3.673c0.008,1.21,0.44,2.419,1.303,3.39
		l36.045,38.386c0.978,1.099,2.379,1.727,3.85,1.727c1.471,0,2.872-0.629,3.85-1.727l36.048-38.386c0.88-0.991,1.313-2.233,1.3-3.47
		C194.165-3087.843,193.657-3089.14,192.666-3090.131z M158.692-3086.698h-11.431l5.715-4.763L158.692-3086.698z M154.989-3093.135
		l7.038-5.866l5.195,5.195l-6.52,5.431L154.989-3093.135z M145.253-3088.375l-6.52-5.431l5.195-5.195l7.038,5.866L145.253-3088.375z
		 M159.389-3084.123l-6.412,32.062l-6.412-32.062H159.389z M162.014-3084.123h12.635l-18.952,31.589L162.014-3084.123z
		 M162.711-3086.698l6.339-5.28l5.281,5.28H162.711z M165.097-3099.572h9.045l-4.933,4.111L165.097-3099.572z M152.977-3094.811
		l-5.715-4.762h11.431L152.977-3094.811z M136.746-3095.461l-4.933-4.111h9.044L136.746-3095.461z M136.904-3091.979l6.339,5.28
		h-11.62L136.904-3091.979z M143.94-3084.123l6.317,31.589l-18.952-31.589H143.94z M144.491-3057.143l-25.336-26.981h9.15
		L144.491-3057.143z M177.649-3084.123h9.153l-25.341,26.983L177.649-3084.123z M177.971-3086.698l-6.935-6.936l5.916-4.93
		l11.863,11.865L177.971-3086.698L177.971-3086.698z M128.994-3098.57l5.924,4.936l-6.935,6.936h-11.039L128.994-3098.57z"/>
</g>
<g>
	<path fill="#CC1B1B" d="M140.3,228.232c-13.447,7.89-35.54,8.044-49.096,0.343l-59.3-33.686
		c-13.556-7.701-24.737-26.757-24.846-42.347L6.581,84.345c-0.109-15.59,10.804-34.801,24.251-42.69L89.654,7.143
		c13.447-7.89,35.54-8.044,49.096-0.343l59.3,33.686c13.556,7.701,24.737,26.757,24.846,42.347l0.477,68.198
		c0.109,15.59-10.804,34.801-24.251,42.69L140.3,228.232z"/>
</g>
<g opacity="0.5">
	<path fill="none" stroke="#000000" stroke-width="4" stroke-miterlimit="10" d="M139.972,226.115
		c-13.447,7.89-35.556,8.072-49.132,0.406l-57.541-32.492c-13.576-7.666-24.74-26.694-24.809-42.284l-0.293-66.08
		c-0.069-15.589,10.876-34.8,24.323-42.691L89.984,9.259c13.447-7.89,35.556-8.072,49.132-0.406l57.54,32.492
		c13.576,7.666,24.74,26.694,24.809,42.284l0.293,66.08c0.069,15.59-10.876,34.801-24.323,42.691L139.972,226.115z"/>
</g>
<g>
	<path fill-rule="evenodd" clip-rule="evenodd" fill="#231F20" d="M154.4,83.103c-11.185-11.067-29.063-11.299-40.651-0.887
		c-11.586-10.412-29.46-10.18-40.649,0.887c-11.528,11.401-11.528,29.885,0,41.289c3.295,3.259,34.058,33.681,34.058,33.681
		c3.644,3.604,9.539,3.604,13.183,0c0,0,33.685-33.311,34.058-33.681C165.928,112.988,165.928,94.505,154.4,83.103z
		 M150.004,120.046l-34.059,33.681c-1.209,1.199-3.184,1.199-4.39,0l-34.058-33.681c-9.091-8.988-9.091-23.611,0-32.598
		c8.763-8.666,22.852-8.97,32.075-0.682l4.177,3.754l4.18-3.754c9.223-8.288,23.316-7.984,32.075,0.682
		C159.095,96.435,159.095,111.058,150.004,120.046z"/>
	<path fill-rule="evenodd" clip-rule="evenodd" fill="#231F20" d="M92.955,89.987c-0.006,0-0.006,0.003-0.012,0.003
		c-7.225,0.006-13.084,5.858-13.084,13.078l0,0c0,0.85,0.689,1.539,1.541,1.539c0.852,0,1.541-0.689,1.541-1.539v-0.003
		c0-5.521,4.484-10.001,10.012-10.001h0.003c0.852,0,1.541-0.688,1.541-1.538C94.496,90.675,93.806,89.987,92.955,89.987z"/>
</g>
</svg>
