<?xml version="1.0" encoding="utf-8"?>
<!-- Generator: Adobe Illustrator 17.0.0, SVG Export Plug-In . SVG Version: 6.00 Build 0)  -->
<!DOCTYPE svg PUBLIC "-//W3C//DTD SVG 1.1//EN" "http://www.w3.org/Graphics/SVG/1.1/DTD/svg11.dtd">
<svg version="1.1" id="Слой_1" xmlns="http://www.w3.org/2000/svg" xmlns:xlink="http://www.w3.org/1999/xlink" x="0px" y="0px"
	 width="227.5px" height="235.375px" viewBox="0 0 227.5 235.375" enable-background="new 0 0 227.5 235.375" xml:space="preserve">
<g>
	<path fill="none" d="M192.666-3090.131l-13.08-13.083c-0.966-0.966-2.276-1.509-3.641-1.509h-45.932
		c-1.366,0-2.676,0.543-3.641,1.509l-13.08,13.083c-1.011,1.009-1.516,2.341-1.511,3.673c0.008,1.21,0.44,2.419,1.303,3.39
		l36.045,38.386c0.978,1.099,2.379,1.727,3.85,1.727c1.471,0,2.872-0.629,3.85-1.727l36.048-38.386c0.88-0.991,1.313-2.233,1.3-3.47
		C194.165-3087.843,193.657-3089.14,192.666-3090.131z M158.692-3086.698h-11.431l5.715-4.763L158.692-3086.698z M154.989-3093.135
		l7.038-5.866l5.195,5.195l-6.52,5.431L154.989-3093.135z M145.253-3088.375l-6.52-5.431l5.195-5.195l7.038,5.866L145.253-3088.375z
		 M159.389-3084.123l-6.412,32.062l-6.412-32.062H159.389z M162.014-3084.123h12.635l-18.952,31.589L162.014-3084.123z
		 M162.711-3086.698l6.339-5.28l5.281,5.28H162.711z M165.097-3099.572h9.045l-4.933,4.111L165.097-3099.572z M152.977-3094.811
		l-5.715-4.762h11.431L152.977-3094.811z M136.746-3095.461l-4.933-4.111h9.044L136.746-3095.461z M136.904-3091.979l6.339,5.28
		h-11.62L136.904-3091.979z M143.94-3084.123l6.317,31.589l-18.952-31.589H143.94z M144.491-3057.143l-25.336-26.981h9.15
		L144.491-3057.143z M177.649-3084.123h9.153l-25.341,26.983L177.649-3084.123z M177.971-3086.698l-6.935-6.936l5.916-4.93
		l11.863,11.865H177.971z M128.994-3098.57l5.924,4.936l-6.935,6.936h-11.039L128.994-3098.57z"/>
</g>
<g>
	<path fill="#CC1B1B" d="M140.3,228.232c-13.447,7.89-35.54,8.044-49.096,0.343l-59.3-33.686
		c-13.556-7.701-24.737-26.757-24.846-42.347L6.581,84.345c-0.109-15.59,10.804-34.801,24.251-42.69L89.654,7.143
		c13.447-7.89,35.54-8.044,49.096-0.343l59.3,33.686c13.556,7.701,24.737,26.757,24.846,42.347l0.477,68.198
		c0.109,15.59-10.804,34.801-24.251,42.69L140.3,228.232z"/>
	<path fill="#231F20" d="M167.514,94.777l-17.719-17.722c-1.308-1.308-3.083-2.044-4.932-2.044H82.641
		c-1.85,0-3.624,0.736-4.933,2.044L59.989,94.777c-1.369,1.366-2.054,3.172-2.047,4.976c0.01,1.639,0.596,3.277,1.765,4.592
		l48.828,52c1.325,1.488,3.222,2.34,5.215,2.34s3.89-0.852,5.215-2.34l48.832-52c1.192-1.342,1.778-3.025,1.761-4.7
		C169.544,97.877,168.856,96.119,167.514,94.777z M121.492,99.427h-15.484l7.742-6.452L121.492,99.427z M116.475,90.707l9.534-7.947
		l7.037,7.038l-8.832,7.357L116.475,90.707z M103.286,97.155l-8.832-7.357l7.037-7.038l9.534,7.947L103.286,97.155z
		 M122.436,102.916l-8.686,43.432l-8.686-43.432H122.436z M125.992,102.916h17.116l-25.673,42.792L125.992,102.916z M126.935,99.427
		l8.587-7.153l7.153,7.153H126.935z M130.168,81.988h12.252l-6.683,5.569L130.168,81.988z M113.75,88.438l-7.742-6.451h15.484
		L113.75,88.438z M91.763,87.557l-6.683-5.569h12.252L91.763,87.557z M91.977,92.274l8.587,7.153h-15.74L91.977,92.274z
		 M101.508,102.916l8.557,42.792l-25.673-42.792H101.508z M102.254,139.465l-34.321-36.549h12.395L102.254,139.465z
		 M147.172,102.916h12.399l-34.328,36.552L147.172,102.916z M147.608,99.427l-9.394-9.395l8.015-6.678l16.071,16.073H147.608z
		 M81.261,83.346l8.025,6.686l-9.394,9.395H64.939L81.261,83.346z"/>
</g>
<g opacity="0.5">
	<path fill="none" stroke="#000000" stroke-width="4" stroke-miterlimit="10" d="M139.972,226.115
		c-13.447,7.89-35.556,8.072-49.132,0.406l-57.541-32.492c-13.576-7.666-24.74-26.694-24.809-42.284l-0.293-66.08
		C8.128,70.076,19.073,50.865,32.52,42.974L89.984,9.259c13.447-7.89,35.556-8.072,49.132-0.406l57.54,32.492
		c13.576,7.666,24.74,26.694,24.809,42.284l0.293,66.08c0.069,15.59-10.876,34.801-24.323,42.691L139.972,226.115z"/>
</g>
</svg>
