<?xml version="1.0" encoding="utf-8"?>
<!-- Generator: Adobe Illustrator 17.0.0, SVG Export Plug-In . SVG Version: 6.00 Build 0)  -->
<!DOCTYPE svg PUBLIC "-//W3C//DTD SVG 1.1//EN" "http://www.w3.org/Graphics/SVG/1.1/DTD/svg11.dtd">
<svg version="1.1" id="Слой_1" xmlns="http://www.w3.org/2000/svg" xmlns:xlink="http://www.w3.org/1999/xlink" x="0px" y="0px"
	 width="227.5px" height="235.375px" viewBox="0 0 227.5 235.375" enable-background="new 0 0 227.5 235.375" xml:space="preserve">
<g>
	<path fill="#CC1B1B" d="M139.073,228.232c-13.447,7.89-35.54,8.044-49.096,0.343l-59.3-33.686
		c-13.556-7.701-24.737-26.757-24.846-42.347L5.354,84.345c-0.109-15.59,10.804-34.801,24.251-42.69L88.427,7.143
		c13.447-7.89,35.54-8.044,49.096-0.343l59.3,33.686c13.556,7.701,24.737,26.757,24.846,42.347l0.477,68.198
		c0.109,15.59-10.804,34.801-24.251,42.69L139.073,228.232z"/>
</g>
<g opacity="0.5">
	<path fill="none" stroke="#000000" stroke-width="4" stroke-miterlimit="10" d="M138.826,226.067
		c-13.447,7.89-35.556,8.072-49.132,0.406l-57.541-32.492c-13.576-7.666-24.74-26.694-24.809-42.284l-0.293-66.08
		c-0.069-15.59,10.876-34.801,24.323-42.691L88.838,9.211c13.447-7.89,35.556-8.072,49.132-0.406l57.54,32.492
		c13.576,7.666,24.74,26.694,24.809,42.284l0.293,66.08c0.069,15.59-10.876,34.801-24.323,42.691L138.826,226.067z"/>
</g>
<text transform="matrix(1 0 0 1 62.9443 155.1875)" font-family="'Lato-Regular'" font-size="28">Contact</text>
<g>
	<path d="M135.919,35.32c-0.299-0.195-0.643-0.291-0.984-0.291c-0.351,0-0.701,0.1-1.005,0.305l-54.375,36.25
		c-0.559,0.371-0.867,1.026-0.796,1.696c0.069,0.669,0.505,1.246,1.129,1.494l14.181,5.674l6.668,11.668
		c0.319,0.559,0.912,0.907,1.554,0.914c0.007,0,0.012,0,0.019,0c0.635,0,1.227-0.336,1.554-0.882l3.765-6.276l17.571,7.027
		c0.216,0.088,0.444,0.131,0.672,0.131c0.308,0,0.614-0.078,0.889-0.234c0.478-0.269,0.809-0.74,0.899-1.282l9.062-54.375
		C136.841,36.428,136.526,35.713,135.919,35.32z M84.433,72.689l42.004-28.005l-30.54,32.692c-0.161-0.095-0.304-0.223-0.481-0.293
		L84.433,72.689z M97.216,78.65c-0.004-0.007-0.009-0.01-0.012-0.017l34.333-36.749L102.268,87.49L97.216,78.65z M124.455,88.697
		l-15.48-6.192c-0.37-0.145-0.753-0.194-1.131-0.216l23.839-36.954L124.455,88.697z"/>
</g>
</svg>
