<?xml version="1.0" encoding="utf-8"?>
<!-- Generator: Adobe Illustrator 17.0.0, SVG Export Plug-In . SVG Version: 6.00 Build 0)  -->
<!DOCTYPE svg PUBLIC "-//W3C//DTD SVG 1.1//EN" "http://www.w3.org/Graphics/SVG/1.1/DTD/svg11.dtd">
<svg version="1.1" id="Слой_1" xmlns="http://www.w3.org/2000/svg" xmlns:xlink="http://www.w3.org/1999/xlink" x="0px" y="0px"
	 width="227.5px" height="235.375px" viewBox="0 0 227.5 235.375" enable-background="new 0 0 227.5 235.375" xml:space="preserve">
<g>
	<path fill="#CC1B1B" d="M139.073,228.232c-13.447,7.89-35.54,8.044-49.096,0.343l-59.3-33.686
		c-13.556-7.701-24.737-26.757-24.846-42.347L5.354,84.345c-0.109-15.59,10.804-34.801,24.251-42.69L88.427,7.143
		c13.447-7.89,35.54-8.044,49.096-0.343l59.3,33.686c13.556,7.701,24.737,26.757,24.846,42.347l0.477,68.198
		c0.109,15.59-10.804,34.801-24.251,42.69L139.073,228.232z"/>
</g>
<g opacity="0.5">
	<path fill="none" stroke="#000000" stroke-width="4" stroke-miterlimit="10" d="M138.826,226.067
		c-13.447,7.89-35.556,8.072-49.132,0.406l-57.541-32.492c-13.576-7.666-24.74-26.694-24.809-42.284l-0.293-66.08
		c-0.069-15.59,10.876-34.801,24.323-42.691L88.838,9.211c13.447-7.89,35.556-8.072,49.132-0.406l57.54,32.492
		c13.576,7.666,24.74,26.694,24.809,42.284l0.293,66.08c0.069,15.59-10.876,34.801-24.323,42.691L138.826,226.067z"/>
</g>
<g>
	<path fill="#231F20" d="M146.7,82.11l-3.297-9.919c-0.74-2.215-2.812-3.711-5.149-3.711H89.409c-2.337,0-4.41,1.495-5.149,3.711
		l-3.323,9.925c-2.833,0.182-5.096,2.483-5.096,5.36v8.141c0,2.997,2.43,5.427,5.427,5.427h2.807c0,0.205-0.082,0.395-0.058,0.599
		l5.427,48.846c0.305,2.748,2.626,4.828,5.393,4.828h37.991c2.767,0,5.088-2.08,5.393-4.828l5.427-48.846
		c0.024-0.204-0.058-0.394-0.058-0.599h2.807c2.997,0,5.427-2.429,5.427-5.427v-8.141C151.823,84.588,149.546,82.277,146.7,82.11z
		 M89.409,73.908h48.846l2.714,8.141H86.695L89.409,73.908z M94.836,149.89l-0.904-8.141h39.799l-0.904,8.141H94.836z
		 M134.033,139.036H93.63l-3.016-27.136h46.435L134.033,139.036z M137.351,109.186H90.312l-0.904-8.141h48.846L137.351,109.186z
		 M146.395,95.618H81.268v-8.141h65.128V95.618z"/>
</g>
</svg>
