<?xml version="1.0" encoding="utf-8"?>
<!-- Generator: Adobe Illustrator 17.0.0, SVG Export Plug-In . SVG Version: 6.00 Build 0)  -->
<!DOCTYPE svg PUBLIC "-//W3C//DTD SVG 1.1//EN" "http://www.w3.org/Graphics/SVG/1.1/DTD/svg11.dtd">
<svg version="1.1" id="Слой_1" xmlns="http://www.w3.org/2000/svg" xmlns:xlink="http://www.w3.org/1999/xlink" x="0px" y="0px"
	 width="227.5px" height="235.375px" viewBox="0 0 227.5 235.375" enable-background="new 0 0 227.5 235.375" xml:space="preserve">
<g>
	<path fill="#CC1B1B" d="M140.3,228.232c-13.447,7.89-35.54,8.044-49.096,0.343l-59.3-33.686
		c-13.556-7.701-24.737-26.757-24.846-42.347L6.581,84.345c-0.109-15.59,10.804-34.801,24.251-42.69L89.654,7.143
		c13.447-7.89,35.54-8.044,49.096-0.343l59.3,33.686c13.556,7.701,24.737,26.757,24.846,42.347l0.477,68.198
		c0.109,15.59-10.804,34.801-24.251,42.69L140.3,228.232z"/>
</g>
<g opacity="0.5">
	<path fill="none" stroke="#000000" stroke-width="4" stroke-miterlimit="10" d="M139.972,226.115
		c-13.447,7.89-35.556,8.072-49.132,0.406l-57.541-32.492c-13.576-7.666-24.74-26.694-24.809-42.284l-0.293-66.08
		c-0.069-15.589,10.876-34.8,24.323-42.691L89.984,9.259c13.447-7.89,35.556-8.072,49.132-0.406l57.54,32.492
		c13.576,7.666,24.74,26.694,24.809,42.284l0.293,66.08c0.069,15.59-10.876,34.801-24.323,42.691L139.972,226.115z"/>
</g>
<g>
	<path fill="#231F20" d="M163.325,92.9c0-4.357-2.964-8.082-7.204-9.059l-40.32-9.305c-0.676-0.151-1.366-0.226-2.05-0.226
		c-0.684,0-1.374,0.075-2.091,0.236l-40.276,9.295c-4.244,0.977-7.208,4.702-7.208,9.059s2.964,8.082,7.204,9.059l8.288,1.913
		v26.209c0,8.224,9.412,15.493,34.083,15.493c24.671,0,34.083-7.268,34.083-15.493v-26.209l8.285-1.913
		C160.361,100.982,163.325,97.258,163.325,92.9z M141.636,130.081c0,3.426-9.295,9.295-27.886,9.295
		c-18.591,0-27.886-5.87-27.886-9.295v-24.778l25.836,5.96c0.676,0.151,1.366,0.227,2.05,0.227c0.684,0,1.374-0.076,2.091-0.236
		l25.795-5.952V130.081z M114.447,105.214c-0.23,0.052-0.463,0.079-0.697,0.079c-0.235,0-0.468-0.027-0.697-0.079l-40.28-9.294
		c-1.405-0.324-2.401-1.577-2.401-3.02s0.995-2.696,2.401-3.02l40.28-9.295c0.23-0.052,0.463-0.079,0.697-0.079
		c0.234,0,0.467,0.027,0.697,0.079l40.28,9.295c1.406,0.324,2.401,1.577,2.401,3.02s-0.995,2.696-2.401,3.02L114.447,105.214z"/>
	<path fill="#231F20" d="M154.03,108.392v27.886c0,1.712,1.387,3.099,3.098,3.099s3.099-1.386,3.099-3.099v-27.886
		c0-1.712-1.388-3.098-3.099-3.098S154.03,106.679,154.03,108.392z"/>
	<path fill="#231F20" d="M157.128,142.475c-3.422,0-6.197,8.972-6.197,12.393c0,3.423,2.775,6.197,6.197,6.197
		c3.422,0,6.197-2.774,6.197-6.197C163.325,151.447,160.55,142.475,157.128,142.475z"/>
</g>
</svg>
