<?xml version="1.0" encoding="utf-8"?>
<!-- Generator: Adobe Illustrator 17.0.0, SVG Export Plug-In . SVG Version: 6.00 Build 0)  -->
<!DOCTYPE svg PUBLIC "-//W3C//DTD SVG 1.1//EN" "http://www.w3.org/Graphics/SVG/1.1/DTD/svg11.dtd">
<svg version="1.1" id="Слой_1" xmlns="http://www.w3.org/2000/svg" xmlns:xlink="http://www.w3.org/1999/xlink" x="0px" y="0px"
	 width="227.5px" height="235.375px" viewBox="0 0 227.5 235.375" enable-background="new 0 0 227.5 235.375" xml:space="preserve">
<g>
	<path fill="#CC1B1B" d="M139.073,228.232c-13.447,7.89-35.54,8.044-49.096,0.343l-59.3-33.686
		c-13.556-7.701-24.737-26.757-24.846-42.347L5.354,84.345c-0.109-15.59,10.804-34.801,24.251-42.69L88.427,7.143
		c13.447-7.89,35.54-8.044,49.096-0.343l59.3,33.686c13.556,7.701,24.737,26.757,24.846,42.347l0.477,68.198
		c0.109,15.59-10.804,34.801-24.251,42.69L139.073,228.232z"/>
</g>
<g opacity="0.5">
	<path fill="none" stroke="#000000" stroke-width="4" stroke-miterlimit="10" d="M138.826,226.067
		c-13.447,7.89-35.556,8.072-49.132,0.406l-57.541-32.492c-13.576-7.666-24.74-26.694-24.809-42.284l-0.293-66.08
		c-0.069-15.59,10.876-34.801,24.323-42.691L88.838,9.211c13.447-7.89,35.556-8.072,49.132-0.406l57.54,32.492
		c13.576,7.666,24.74,26.694,24.809,42.284l0.293,66.08c0.069,15.59-10.876,34.801-24.323,42.691L138.826,226.067z"/>
</g>
<g>
	<g>
		<path fill="#231F20" d="M135.968,60.906l-44.435,0.003c-4.602,0-8.332,3.728-8.332,8.331v72.208c0,4.603,3.729,8.332,8.332,8.332
			l44.435-0.003c4.602,0,8.332-3.729,8.332-8.332V69.238C144.299,64.636,140.57,60.906,135.968,60.906z M138.745,141.445
			c0,1.533-1.245,2.778-2.777,2.778l-44.435,0.003c-1.532,0-2.777-1.245-2.777-2.777v-5.565l49.99-0.003V141.445z M138.745,133.102
			l-49.99,0.003V77.572l49.99-0.003V133.102z M138.745,74.792l-49.99,0.003V69.24c0-1.533,1.245-2.777,2.777-2.777l44.435-0.003
			c1.532,0,2.777,1.245,2.777,2.778V74.792z M117.916,69.238h-8.332c-0.768,0-1.389,0.622-1.389,1.388
			c0,0.768,0.621,1.389,1.389,1.389h8.332c0.768,0,1.389-0.621,1.389-1.389C119.304,69.859,118.683,69.238,117.916,69.238z
			 M112.361,141.435h2.777c0.768,0,1.388-0.622,1.388-1.39c0-0.767-0.621-1.388-1.388-1.388h-2.777
			c-0.768,0-1.389,0.621-1.389,1.388C110.973,140.813,111.594,141.435,112.361,141.435z"/>
	</g>
	<g>
		<path fill="none" stroke="#231F20" stroke-miterlimit="10" d="M135.968,60.906l-44.435,0.003c-4.602,0-8.332,3.728-8.332,8.331
			v72.208c0,4.603,3.729,8.332,8.332,8.332l44.435-0.003c4.602,0,8.332-3.729,8.332-8.332V69.238
			C144.299,64.636,140.57,60.906,135.968,60.906z M138.745,141.445c0,1.533-1.245,2.778-2.777,2.778l-44.435,0.003
			c-1.532,0-2.777-1.245-2.777-2.777v-5.565l49.99-0.003V141.445z M138.745,133.102l-49.99,0.003V77.572l49.99-0.003V133.102z
			 M138.745,74.792l-49.99,0.003V69.24c0-1.533,1.245-2.777,2.777-2.777l44.435-0.003c1.532,0,2.777,1.245,2.777,2.778V74.792z
			 M117.916,69.238h-8.332c-0.768,0-1.389,0.622-1.389,1.388c0,0.768,0.621,1.389,1.389,1.389h8.332
			c0.768,0,1.389-0.621,1.389-1.389C119.304,69.859,118.683,69.238,117.916,69.238z M112.361,141.435h2.777
			c0.768,0,1.388-0.622,1.388-1.39c0-0.767-0.621-1.388-1.388-1.388h-2.777c-0.768,0-1.389,0.621-1.389,1.388
			C110.973,140.813,111.594,141.435,112.361,141.435z"/>
	</g>
</g>
</svg>
