<?xml version="1.0" encoding="utf-8"?>
<!-- Generator: Adobe Illustrator 17.0.0, SVG Export Plug-In . SVG Version: 6.00 Build 0)  -->
<!DOCTYPE svg PUBLIC "-//W3C//DTD SVG 1.1//EN" "http://www.w3.org/Graphics/SVG/1.1/DTD/svg11.dtd">
<svg version="1.1" id="Слой_1" xmlns="http://www.w3.org/2000/svg" xmlns:xlink="http://www.w3.org/1999/xlink" x="0px" y="0px"
	 width="227.5px" height="235.375px" viewBox="0 0 227.5 235.375" enable-background="new 0 0 227.5 235.375" xml:space="preserve">
<g>
	<path fill="#CC1B1B" d="M139.073,228.232c-13.447,7.89-35.54,8.044-49.096,0.343l-59.3-33.686
		c-13.556-7.701-24.737-26.757-24.846-42.347L5.354,84.345c-0.109-15.59,10.804-34.801,24.251-42.69L88.427,7.143
		c13.447-7.89,35.54-8.044,49.096-0.343l59.3,33.686c13.556,7.701,24.737,26.757,24.846,42.347l0.477,68.198
		c0.109,15.59-10.804,34.801-24.251,42.69L139.073,228.232z"/>
</g>
<g opacity="0.5">
	<path fill="none" stroke="#000000" stroke-width="4" stroke-miterlimit="10" d="M138.826,226.067
		c-13.447,7.89-35.556,8.072-49.132,0.406l-57.541-32.492c-13.576-7.666-24.74-26.694-24.809-42.284l-0.293-66.08
		c-0.069-15.59,10.876-34.801,24.323-42.691L88.838,9.211c13.447-7.89,35.556-8.072,49.132-0.406l57.54,32.492
		c13.576,7.666,24.74,26.694,24.809,42.284l0.293,66.08c0.069,15.59-10.876,34.801-24.323,42.691L138.826,226.067z"/>
</g>
<text transform="matrix(1 0 0 1 62.9443 155.1875)" font-family="'Lato-Regular'" font-size="28">Portfolio</text>
<g>
	<g>
		<g>
			<path d="M131.976,50.074H95.524c-3.66,0-6.628,2.968-6.628,6.628v39.767c0,3.66,2.968,6.628,6.628,6.628h36.453
				c3.66,0,6.628-2.968,6.628-6.628V56.702C138.604,53.042,135.636,50.074,131.976,50.074z M135.29,96.469
				c0,1.825-1.487,3.314-3.314,3.314H95.524c-1.827,0-3.314-1.489-3.314-3.314V56.702c0-1.827,1.487-3.314,3.314-3.314h36.453
				c1.827,0,3.314,1.487,3.314,3.314V96.469z M130.319,56.702H97.181c-0.916,0-1.657,0.741-1.657,1.657v29.825
				c0,0.917,0.741,1.658,1.657,1.658h33.139c0.916,0,1.657-0.741,1.657-1.658V58.359C131.976,57.443,131.235,56.702,130.319,56.702z
				 M97.181,88.184V74.265l6.628-7.622l13.365,15.15l0.961,1.091l4.576,5.3H97.181z M130.319,88.184h-5.399l-5.68-6.553l4.451-5.046
				l6.628,7.257V88.184z M130.319,81.34l-5.385-5.851c-0.315-0.358-0.767-0.561-1.243-0.561c-0.476,0-0.927,0.203-1.243,0.561
				l-4.312,4.889l-13.086-14.831c-0.315-0.358-0.767-0.562-1.243-0.562c-0.476,0-0.927,0.204-1.243,0.562l-5.385,6.21V58.359h33.139
				V81.34z M123.692,71.615c2.746,0,4.971-2.225,4.971-4.971c0-2.746-2.225-4.971-4.971-4.971c-2.746,0-4.971,2.225-4.971,4.971
				C118.721,69.39,120.946,71.615,123.692,71.615z M123.692,63.33c1.827,0,3.314,1.487,3.314,3.314c0,1.827-1.487,3.314-3.314,3.314
				c-1.827,0-3.314-1.487-3.314-3.314C120.378,64.817,121.865,63.33,123.692,63.33z"/>
		</g>
	</g>
</g>
</svg>
