<?xml version="1.0" encoding="utf-8"?>
<!-- Generator: Adobe Illustrator 17.0.0, SVG Export Plug-In . SVG Version: 6.00 Build 0)  -->
<!DOCTYPE svg PUBLIC "-//W3C//DTD SVG 1.1//EN" "http://www.w3.org/Graphics/SVG/1.1/DTD/svg11.dtd">
<svg version="1.1" id="Слой_1" xmlns="http://www.w3.org/2000/svg" xmlns:xlink="http://www.w3.org/1999/xlink" x="0px" y="0px"
	 width="227.5px" height="235.375px" viewBox="0 0 227.5 235.375" enable-background="new 0 0 227.5 235.375" xml:space="preserve">
<g>
	<path fill="#CC1B1B" d="M139.073,228.232c-13.447,7.89-35.54,8.044-49.096,0.343l-59.3-33.686
		c-13.556-7.701-24.737-26.757-24.846-42.347L5.354,84.345c-0.109-15.59,10.804-34.801,24.251-42.69L88.427,7.143
		c13.447-7.89,35.54-8.044,49.096-0.343l59.3,33.686c13.556,7.701,24.737,26.757,24.846,42.347l0.477,68.198
		c0.109,15.59-10.804,34.801-24.251,42.69L139.073,228.232z"/>
</g>
<g>
	<path d="M113.751,54.707c-11.372,0-20.978,6.114-20.978,13.349c0,0.528,0.427,0.954,0.953,0.954c0.527,0,0.954-0.427,0.954-0.954
		c0-6.095,8.911-11.442,19.071-11.442c0.527,0,0.953-0.426,0.953-0.954C114.704,55.133,114.278,54.707,113.751,54.707z
		 M113.751,45.172c-16.853,0-30.513,10.247-30.513,22.885c0,7.871,5.3,14.81,13.364,18.93c0,0.052-0.015,0.085-0.015,0.141
		c0,3.419-2.553,7.099-3.677,9.032c0.002,0,0.004,0,0.004,0c-0.089,0.209-0.142,0.439-0.142,0.682c0,0.955,0.773,1.728,1.728,1.728
		c0.179,0,0.493-0.048,0.486-0.024c5.96-0.976,11.575-6.451,12.878-8.04c1.905,0.279,3.87,0.436,5.885,0.436
		c16.851,0,30.513-10.247,30.513-22.885C144.264,55.418,130.602,45.172,113.751,45.172z M113.751,87.128
		c-1.749,0-3.543-0.132-5.332-0.395c-0.184-0.028-0.371-0.041-0.553-0.041c-1.132,0-2.218,0.505-2.948,1.395
		c-0.816,0.994-3.138,3.209-5.883,4.842c0.743-1.706,1.326-3.62,1.365-5.59c0.011-0.123,0.017-0.246,0.017-0.352
		c0-1.432-0.803-2.745-2.078-3.398c-7.068-3.609-11.286-9.416-11.286-15.532c0-10.515,11.977-19.07,26.699-19.07
		s26.699,8.555,26.699,19.07C140.45,78.572,128.473,87.128,113.751,87.128z"/>
</g>
<g opacity="0.5">
	<path fill="none" stroke="#000000" stroke-width="4" stroke-miterlimit="10" d="M138.826,226.067
		c-13.447,7.89-35.556,8.072-49.132,0.406l-57.541-32.492c-13.576-7.666-24.74-26.694-24.809-42.284l-0.293-66.08
		c-0.069-15.59,10.876-34.801,24.323-42.691L88.838,9.211c13.447-7.89,35.556-8.072,49.132-0.406l57.54,32.492
		c13.576,7.666,24.74,26.694,24.809,42.284l0.293,66.08c0.069,15.59-10.876,34.801-24.323,42.691L138.826,226.067z"/>
</g>
<text transform="matrix(1 0 0 1 62.9443 155.1875)" font-family="'Lato-Regular'" font-size="28">Services</text>
</svg>
