<?xml version="1.0" encoding="utf-8"?>
<!-- Generator: Adobe Illustrator 17.0.0, SVG Export Plug-In . SVG Version: 6.00 Build 0)  -->
<!DOCTYPE svg PUBLIC "-//W3C//DTD SVG 1.1//EN" "http://www.w3.org/Graphics/SVG/1.1/DTD/svg11.dtd">
<svg version="1.1" id="services_border" xmlns="http://www.w3.org/2000/svg" xmlns:xlink="http://www.w3.org/1999/xlink" x="0px" y="0px"
	 width="227.5px" height="235.375px" viewBox="0 0 227.5 235.375" enable-background="new 0 0 227.5 235.375" xml:space="preserve">
<g>
	<g>
		<path d="M114.604,235.735c-13.354,0-25.922-2.951-35.39-8.309l-42.552-24.079c-19.738-11.17-35.948-38.706-36.135-61.384
			L0.135,94.456C-0.051,71.77,15.79,44.1,35.447,32.775l41.81-24.087c9.609-5.536,22.399-8.584,36.014-8.584
			c13.354,0,25.922,2.951,35.391,8.309l42.552,24.079c19.738,11.169,35.948,38.706,36.135,61.383l0.392,47.509
			c0.187,22.687-15.654,50.356-35.312,61.681l-41.81,24.087C141.009,232.687,128.219,235.735,114.604,235.735z M113.27,5.103
			c-12.752,0-24.656,2.812-33.518,7.917l-41.81,24.087C19.679,47.629,4.962,73.337,5.135,94.415l0.392,47.508
			c0.174,21.085,15.246,46.688,33.598,57.073l42.552,24.079c8.729,4.939,20.423,7.66,32.928,7.66
			c12.753,0,24.657-2.812,33.518-7.917l41.81-24.087c18.264-10.521,32.981-36.229,32.808-57.308l-0.392-47.509
			c-0.174-21.085-15.245-46.688-33.598-57.073l-42.552-24.079C137.469,7.824,125.774,5.103,113.27,5.103z"/>
	</g>
</g>
</svg>
