<?xml version="1.0" encoding="utf-8"?>
<!-- Generator: Adobe Illustrator 17.0.0, SVG Export Plug-In . SVG Version: 6.00 Build 0)  -->
<!DOCTYPE svg PUBLIC "-//W3C//DTD SVG 1.1//EN" "http://www.w3.org/Graphics/SVG/1.1/DTD/svg11.dtd">
<svg version="1.1" id="Слой_1" xmlns="http://www.w3.org/2000/svg" xmlns:xlink="http://www.w3.org/1999/xlink" x="0px" y="0px"
	 width="227.5px" height="235.375px" viewBox="0 0 227.5 235.375" enable-background="new 0 0 227.5 235.375" xml:space="preserve">
<g>
	<g>
		<path d="M114.604,235.735c-13.354,0-25.922-2.951-35.39-8.309l-42.552-24.079c-19.738-11.17-35.948-38.706-36.135-61.384
			L0.135,94.456C-0.051,71.77,15.79,44.1,35.447,32.775l41.81-24.087c9.609-5.536,22.399-8.584,36.014-8.584
			c13.354,0,25.922,2.951,35.391,8.309l42.552,24.079c19.738,11.169,35.948,38.706,36.135,61.383l0.392,47.509
			c0.187,22.687-15.654,50.356-35.312,61.681l-41.81,24.087C141.009,232.687,128.219,235.735,114.604,235.735z M113.27,5.103
			c-12.752,0-24.656,2.812-33.518,7.917l-41.81,24.087C19.679,47.629,4.962,73.337,5.135,94.415l0.392,47.508
			c0.174,21.085,15.246,46.688,33.598,57.073l42.552,24.079c8.729,4.939,20.423,7.66,32.928,7.66
			c12.753,0,24.657-2.812,33.518-7.917l41.81-24.087c18.264-10.521,32.981-36.229,32.808-57.308l-0.392-47.509
			c-0.174-21.085-15.245-46.688-33.598-57.073l-42.552-24.079C137.469,7.824,125.774,5.103,113.27,5.103z"/>
	</g>
	<g>
		<path fill-rule="evenodd" clip-rule="evenodd" d="M113.75,52.09c-11.372,0-20.978,6.114-20.978,13.349
			c0,0.528,0.427,0.954,0.953,0.954c0.527,0,0.954-0.427,0.954-0.954c0-6.095,8.911-11.442,19.071-11.442
			c0.527,0,0.953-0.426,0.953-0.954C114.703,52.516,114.277,52.09,113.75,52.09z M113.75,42.555
			c-16.853,0-30.513,10.247-30.513,22.885c0,7.871,5.3,14.81,13.364,18.93c0,0.052-0.015,0.085-0.015,0.141
			c0,3.419-2.553,7.099-3.677,9.032c0.002,0,0.004,0,0.004,0c-0.089,0.209-0.142,0.439-0.142,0.682c0,0.955,0.773,1.728,1.728,1.728
			c0.179,0,0.493-0.048,0.486-0.024c5.96-0.976,11.575-6.451,12.878-8.04c1.905,0.279,3.87,0.436,5.885,0.436
			c16.851,0,30.513-10.247,30.513-22.885C144.263,52.801,130.601,42.555,113.75,42.555z M113.75,84.511
			c-1.749,0-3.543-0.132-5.332-0.395c-0.184-0.028-0.371-0.041-0.553-0.041c-1.132,0-2.218,0.505-2.948,1.395
			c-0.816,0.994-3.138,3.209-5.883,4.842c0.743-1.706,1.326-3.62,1.365-5.59c0.011-0.123,0.017-0.246,0.017-0.352
			c0-1.432-0.803-2.745-2.078-3.398c-7.068-3.609-11.286-9.416-11.286-15.532c0-10.515,11.977-19.07,26.699-19.07
			c14.722,0,26.699,8.555,26.699,19.07C140.449,75.955,128.472,84.511,113.75,84.511z"/>
	</g>
</g>
<g>
	<path d="M80.742,145.867c-0.072,0.12-0.15,0.21-0.234,0.27c-0.084,0.061-0.186,0.09-0.306,0.09c-0.136,0-0.296-0.067-0.48-0.203
		c-0.184-0.137-0.414-0.286-0.69-0.45c-0.276-0.164-0.608-0.314-0.996-0.45c-0.388-0.136-0.858-0.204-1.41-0.204
		c-0.52,0-0.978,0.07-1.374,0.21c-0.396,0.141-0.728,0.33-0.996,0.57s-0.47,0.521-0.606,0.846s-0.204,0.674-0.204,1.05
		c0,0.48,0.118,0.878,0.354,1.194s0.548,0.586,0.936,0.81c0.388,0.225,0.828,0.419,1.32,0.582c0.492,0.164,0.996,0.334,1.512,0.511
		c0.516,0.176,1.02,0.374,1.512,0.594c0.492,0.22,0.932,0.498,1.32,0.834s0.7,0.748,0.936,1.236c0.236,0.487,0.354,1.088,0.354,1.8
		c0,0.752-0.128,1.458-0.384,2.118c-0.256,0.659-0.63,1.233-1.122,1.722c-0.492,0.488-1.096,0.872-1.812,1.152
		c-0.716,0.279-1.53,0.42-2.442,0.42c-1.12,0-2.136-0.202-3.048-0.606c-0.912-0.404-1.692-0.95-2.34-1.638l0.672-1.104
		c0.064-0.088,0.142-0.162,0.234-0.222c0.092-0.061,0.194-0.09,0.306-0.09c0.104,0,0.222,0.042,0.354,0.126
		c0.132,0.084,0.282,0.189,0.45,0.317c0.168,0.129,0.36,0.269,0.576,0.421c0.216,0.151,0.462,0.292,0.738,0.42
		s0.59,0.233,0.942,0.317s0.748,0.126,1.188,0.126c0.552,0,1.044-0.076,1.476-0.228c0.432-0.152,0.798-0.366,1.098-0.643
		c0.3-0.275,0.53-0.605,0.69-0.989c0.16-0.385,0.24-0.813,0.24-1.284c0-0.521-0.118-0.946-0.354-1.278s-0.546-0.609-0.93-0.834
		c-0.384-0.224-0.824-0.414-1.32-0.57c-0.496-0.155-1-0.315-1.512-0.479c-0.512-0.164-1.016-0.354-1.512-0.57
		s-0.936-0.496-1.32-0.84c-0.384-0.344-0.694-0.774-0.93-1.29s-0.354-1.153-0.354-1.914c0-0.607,0.118-1.195,0.354-1.764
		s0.58-1.072,1.032-1.512c0.452-0.44,1.008-0.792,1.668-1.057c0.66-0.264,1.418-0.396,2.274-0.396c0.96,0,1.834,0.151,2.622,0.456
		c0.788,0.304,1.482,0.743,2.082,1.319L80.742,145.867z"/>
	<path d="M94.254,158.671c-0.264,0.32-0.58,0.599-0.948,0.834c-0.368,0.236-0.762,0.431-1.182,0.582
		c-0.42,0.152-0.854,0.267-1.302,0.342c-0.448,0.076-0.892,0.114-1.332,0.114c-0.84,0-1.614-0.143-2.322-0.426
		c-0.708-0.284-1.32-0.7-1.836-1.248c-0.516-0.548-0.918-1.226-1.206-2.034c-0.288-0.808-0.432-1.735-0.432-2.784
		c0-0.848,0.13-1.64,0.39-2.376c0.26-0.735,0.634-1.374,1.122-1.914c0.488-0.54,1.084-0.964,1.788-1.271
		c0.704-0.309,1.496-0.462,2.376-0.462c0.728,0,1.402,0.122,2.022,0.365c0.62,0.244,1.156,0.597,1.608,1.057
		c0.452,0.46,0.806,1.028,1.062,1.704c0.256,0.676,0.384,1.445,0.384,2.31c0,0.336-0.036,0.561-0.108,0.672
		c-0.072,0.112-0.208,0.168-0.408,0.168h-8.124c0.024,0.769,0.13,1.437,0.318,2.004c0.188,0.568,0.45,1.043,0.786,1.422
		c0.336,0.381,0.736,0.665,1.2,0.853c0.464,0.188,0.984,0.282,1.56,0.282c0.536,0,0.998-0.063,1.386-0.187s0.722-0.258,1.002-0.401
		c0.28-0.145,0.514-0.278,0.702-0.402s0.35-0.187,0.486-0.187c0.176,0,0.312,0.068,0.408,0.204L94.254,158.671z M92.526,152.971
		c0-0.496-0.07-0.949-0.21-1.361c-0.14-0.412-0.344-0.769-0.612-1.068s-0.594-0.532-0.978-0.696
		c-0.384-0.164-0.82-0.246-1.308-0.246c-1.024,0-1.834,0.299-2.43,0.895c-0.596,0.596-0.966,1.422-1.11,2.478H92.526z"/>
	<path d="M99.09,150.655c0.384-0.832,0.856-1.482,1.416-1.95c0.56-0.468,1.244-0.702,2.052-0.702c0.256,0,0.502,0.028,0.738,0.084
		c0.236,0.056,0.446,0.145,0.63,0.264l-0.156,1.597c-0.048,0.2-0.168,0.3-0.36,0.3c-0.112,0-0.276-0.024-0.492-0.072
		c-0.216-0.048-0.46-0.072-0.732-0.072c-0.384,0-0.726,0.057-1.026,0.169c-0.3,0.111-0.568,0.277-0.804,0.497
		c-0.236,0.221-0.448,0.492-0.636,0.816s-0.358,0.694-0.51,1.11v7.68h-2.148v-12.156h1.224c0.232,0,0.392,0.044,0.48,0.132
		c0.088,0.089,0.148,0.24,0.18,0.456L99.09,150.655z"/>
	<path d="M116.214,148.219l-4.956,12.156h-1.92l-4.956-12.156h1.74c0.176,0,0.32,0.044,0.432,0.132
		c0.112,0.089,0.188,0.192,0.228,0.313l3.084,7.824c0.096,0.296,0.18,0.584,0.252,0.863c0.072,0.28,0.14,0.561,0.204,0.841
		c0.064-0.28,0.132-0.561,0.204-0.841c0.072-0.279,0.16-0.567,0.264-0.863l3.12-7.824c0.048-0.128,0.127-0.234,0.24-0.318
		c0.112-0.084,0.244-0.126,0.396-0.126H116.214z"/>
	<path d="M120.894,144.403c0,0.208-0.042,0.401-0.126,0.582c-0.084,0.18-0.196,0.34-0.336,0.479c-0.14,0.141-0.304,0.25-0.492,0.33
		c-0.188,0.08-0.386,0.12-0.594,0.12s-0.402-0.04-0.582-0.12c-0.18-0.08-0.338-0.189-0.474-0.33c-0.136-0.14-0.244-0.3-0.324-0.479
		c-0.08-0.181-0.12-0.374-0.12-0.582s0.04-0.406,0.12-0.595c0.08-0.188,0.188-0.352,0.324-0.491c0.136-0.141,0.294-0.25,0.474-0.33
		c0.18-0.08,0.374-0.12,0.582-0.12s0.406,0.04,0.594,0.12c0.188,0.08,0.352,0.189,0.492,0.33c0.14,0.14,0.252,0.304,0.336,0.491
		C120.852,143.997,120.894,144.195,120.894,144.403z M120.438,148.219v12.156h-2.136v-12.156H120.438z"/>
	<path d="M132.401,150.379c-0.063,0.088-0.128,0.156-0.192,0.204s-0.152,0.072-0.264,0.072c-0.12,0-0.252-0.05-0.396-0.15
		c-0.144-0.1-0.322-0.21-0.534-0.33c-0.212-0.12-0.472-0.229-0.78-0.33c-0.308-0.1-0.686-0.149-1.134-0.149
		c-0.6,0-1.128,0.105-1.584,0.317s-0.838,0.519-1.146,0.918c-0.308,0.4-0.54,0.885-0.696,1.452
		c-0.156,0.568-0.234,1.204-0.234,1.908c0,0.736,0.084,1.39,0.252,1.962s0.406,1.052,0.714,1.44c0.308,0.388,0.68,0.684,1.116,0.888
		s0.926,0.306,1.47,0.306c0.52,0,0.948-0.062,1.284-0.186s0.614-0.262,0.834-0.414c0.22-0.152,0.404-0.29,0.552-0.414
		s0.294-0.187,0.438-0.187c0.176,0,0.313,0.068,0.408,0.204l0.6,0.78c-0.264,0.328-0.564,0.608-0.9,0.84
		c-0.336,0.232-0.698,0.426-1.086,0.582c-0.388,0.156-0.794,0.271-1.218,0.342c-0.424,0.072-0.856,0.108-1.296,0.108
		c-0.76,0-1.466-0.14-2.118-0.42c-0.652-0.28-1.218-0.686-1.698-1.218s-0.856-1.187-1.128-1.962
		c-0.272-0.776-0.408-1.66-0.408-2.652c0-0.904,0.126-1.74,0.378-2.508c0.252-0.769,0.62-1.43,1.104-1.986
		c0.484-0.556,1.08-0.99,1.788-1.302c0.708-0.313,1.522-0.468,2.442-0.468c0.856,0,1.61,0.138,2.262,0.414
		c0.652,0.275,1.229,0.666,1.733,1.17L132.401,150.379z"/>
	<path d="M145.05,158.671c-0.264,0.32-0.58,0.599-0.947,0.834c-0.368,0.236-0.763,0.431-1.183,0.582
		c-0.42,0.152-0.854,0.267-1.302,0.342c-0.448,0.076-0.893,0.114-1.332,0.114c-0.84,0-1.614-0.143-2.322-0.426
		c-0.708-0.284-1.319-0.7-1.836-1.248c-0.516-0.548-0.918-1.226-1.206-2.034c-0.288-0.808-0.432-1.735-0.432-2.784
		c0-0.848,0.13-1.64,0.39-2.376c0.26-0.735,0.634-1.374,1.122-1.914s1.084-0.964,1.788-1.271c0.704-0.309,1.496-0.462,2.376-0.462
		c0.728,0,1.402,0.122,2.022,0.365c0.619,0.244,1.155,0.597,1.607,1.057s0.806,1.028,1.063,1.704
		c0.256,0.676,0.384,1.445,0.384,2.31c0,0.336-0.036,0.561-0.108,0.672c-0.071,0.112-0.208,0.168-0.407,0.168h-8.124
		c0.023,0.769,0.13,1.437,0.317,2.004c0.188,0.568,0.45,1.043,0.786,1.422c0.336,0.381,0.736,0.665,1.2,0.853
		c0.464,0.188,0.984,0.282,1.56,0.282c0.536,0,0.998-0.063,1.387-0.187c0.388-0.124,0.722-0.258,1.002-0.401
		c0.279-0.145,0.514-0.278,0.701-0.402c0.188-0.124,0.351-0.187,0.486-0.187c0.176,0,0.313,0.068,0.408,0.204L145.05,158.671z
		 M143.322,152.971c0-0.496-0.07-0.949-0.21-1.361c-0.141-0.412-0.344-0.769-0.612-1.068c-0.268-0.3-0.594-0.532-0.978-0.696
		c-0.385-0.164-0.82-0.246-1.309-0.246c-1.023,0-1.834,0.299-2.43,0.895s-0.966,1.422-1.11,2.478H143.322z"/>
	<path d="M154.938,150.223c-0.097,0.177-0.244,0.265-0.444,0.265c-0.12,0-0.256-0.044-0.408-0.132
		c-0.152-0.089-0.338-0.187-0.558-0.295c-0.221-0.107-0.482-0.207-0.786-0.3c-0.305-0.092-0.664-0.138-1.08-0.138
		c-0.36,0-0.685,0.046-0.972,0.138c-0.288,0.093-0.534,0.219-0.738,0.378c-0.204,0.16-0.36,0.347-0.468,0.559
		c-0.108,0.212-0.162,0.441-0.162,0.689c0,0.313,0.09,0.572,0.27,0.78c0.181,0.208,0.418,0.388,0.714,0.54s0.632,0.286,1.009,0.402
		c0.376,0.115,0.762,0.239,1.157,0.372c0.396,0.132,0.782,0.277,1.158,0.438s0.712,0.36,1.008,0.6
		c0.296,0.24,0.534,0.534,0.714,0.883c0.181,0.348,0.271,0.766,0.271,1.254c0,0.56-0.101,1.078-0.3,1.554
		c-0.2,0.477-0.496,0.888-0.889,1.236c-0.392,0.348-0.872,0.622-1.439,0.821c-0.568,0.2-1.225,0.301-1.968,0.301
		c-0.849,0-1.616-0.139-2.305-0.414c-0.688-0.276-1.271-0.63-1.752-1.063l0.504-0.815c0.064-0.104,0.141-0.185,0.229-0.24
		s0.2-0.084,0.336-0.084c0.144,0,0.296,0.056,0.456,0.168s0.354,0.236,0.582,0.372c0.228,0.136,0.506,0.26,0.834,0.372
		s0.735,0.168,1.224,0.168c0.416,0,0.78-0.055,1.092-0.162c0.313-0.108,0.572-0.254,0.78-0.438c0.208-0.184,0.362-0.396,0.462-0.636
		c0.101-0.24,0.15-0.496,0.15-0.768c0-0.336-0.09-0.614-0.271-0.834c-0.18-0.221-0.418-0.408-0.714-0.564s-0.634-0.292-1.014-0.408
		c-0.38-0.115-0.769-0.237-1.164-0.365c-0.396-0.128-0.784-0.274-1.164-0.438s-0.718-0.37-1.014-0.618s-0.534-0.554-0.714-0.918
		c-0.181-0.364-0.271-0.806-0.271-1.326c0-0.464,0.096-0.909,0.288-1.338c0.192-0.428,0.472-0.804,0.84-1.128
		s0.82-0.582,1.356-0.773c0.535-0.192,1.147-0.288,1.836-0.288c0.8,0,1.518,0.126,2.153,0.378c0.637,0.252,1.187,0.598,1.65,1.038
		L154.938,150.223z"/>
</g>
</svg>
