<?xml version="1.0" encoding="utf-8"?>
<!-- Generator: Adobe Illustrator 17.0.0, SVG Export Plug-In . SVG Version: 6.00 Build 0)  -->
<!DOCTYPE svg PUBLIC "-//W3C//DTD SVG 1.1//EN" "http://www.w3.org/Graphics/SVG/1.1/DTD/svg11.dtd">
<svg version="1.1" id="Слой_1" xmlns="http://www.w3.org/2000/svg" xmlns:xlink="http://www.w3.org/1999/xlink" x="0px" y="0px"
	 width="227.5px" height="235.375px" viewBox="0 0 227.5 235.375" enable-background="new 0 0 227.5 235.375" xml:space="preserve">
<g>
	<g>
		<g id="XMLID_1_">
			<g>
				<path d="M221.86,139.979c0.18,21.546-14.867,47.833-33.544,58.596l-39.72,22.876c-9.129,5.263-21.28,8.161-34.219,8.161
					c-12.682,0-24.624-2.803-33.62-7.895l-40.423-22.876C21.581,188.23,6.182,162.067,6.011,140.53L5.64,95.396
					C5.46,73.84,20.507,47.554,39.185,36.8l39.719-22.886c9.13-5.263,21.28-8.151,34.21-8.151c12.692,0,24.624,2.803,33.62,7.895
					l40.423,22.867c18.753,10.611,34.153,36.775,34.333,58.32L221.86,139.979z"/>
			</g>
			<g>
				<path fill="none" stroke="#000000" stroke-width="12" stroke-miterlimit="10" d="M114.377,229.612
					c-12.682,0-24.624-2.803-33.62-7.895l-40.423-22.876C21.581,188.23,6.182,162.067,6.011,140.53L5.64,95.396
					C5.46,73.84,20.507,47.554,39.185,36.8l39.719-22.886c9.13-5.263,21.28-8.151,34.21-8.151c12.692,0,24.624,2.803,33.62,7.895
					l40.423,22.867c18.753,10.611,34.153,36.775,34.333,58.32l0.37,45.134c0.18,21.546-14.867,47.833-33.544,58.596l-39.72,22.876
					C139.467,226.714,127.316,229.612,114.377,229.612z"/>
			</g>
		</g>
	</g>
</g>
</svg>
