<?xml version="1.0" encoding="utf-8"?>
<!-- Generator: Adobe Illustrator 17.0.0, SVG Export Plug-In . SVG Version: 6.00 Build 0)  -->
<!DOCTYPE svg PUBLIC "-//W3C//DTD SVG 1.1//EN" "http://www.w3.org/Graphics/SVG/1.1/DTD/svg11.dtd">
<svg version="1.1" id="Слой_1" xmlns="http://www.w3.org/2000/svg" xmlns:xlink="http://www.w3.org/1999/xlink" x="0px" y="0px"
	 width="227.5px" height="235.375px" viewBox="0 0 227.5 235.375" enable-background="new 0 0 227.5 235.375" xml:space="preserve">
<g>
	<g>
		<g id="XMLID_1_">
			<g>
				<path d="M227.55,141.152c0.19,22.68-15.65,50.35-35.31,61.68l-41.81,24.08c-9.61,5.54-22.4,8.59-36.02,8.59
					c-13.35,0-25.92-2.95-35.39-8.31l-42.55-24.08c-19.74-11.17-35.95-38.71-36.13-61.38l-0.39-47.51
					c-0.19-22.69,15.65-50.36,35.31-61.68l41.81-24.09c9.61-5.54,22.4-8.58,36.01-8.58c13.36,0,25.92,2.95,35.39,8.31l42.55,24.07
					c19.74,11.17,35.95,38.71,36.14,61.39L227.55,141.152z"/>
			</g>
			<g>
			</g>
		</g>
	</g>
</g>
</svg>
