<?xml version="1.0" encoding="utf-8"?>
<!-- Generator: Adobe Illustrator 17.0.0, SVG Export Plug-In . SVG Version: 6.00 Build 0)  -->
<!DOCTYPE svg PUBLIC "-//W3C//DTD SVG 1.1//EN" "http://www.w3.org/Graphics/SVG/1.1/DTD/svg11.dtd">
<svg version="1.1" id="Слой_1" xmlns="http://www.w3.org/2000/svg" xmlns:xlink="http://www.w3.org/1999/xlink" x="0px" y="0px"
	 width="227.5px" height="235.375px" viewBox="0 0 227.5 235.375" enable-background="new 0 0 227.5 235.375" xml:space="preserve">
<g>
	<path fill="#CC1B1B" d="M139.073,228.232c-13.447,7.89-35.54,8.044-49.096,0.343l-59.3-33.686
		c-13.556-7.701-24.737-26.757-24.846-42.347L5.354,84.345c-0.109-15.59,10.804-34.801,24.251-42.69L88.427,7.143
		c13.447-7.89,35.54-8.044,49.096-0.343l59.3,33.686c13.556,7.701,24.737,26.757,24.846,42.347l0.477,68.198
		c0.109,15.59-10.804,34.801-24.251,42.69L139.073,228.232z"/>
</g>
<g opacity="0.5">
	<path fill="none" stroke="#000000" stroke-width="4" stroke-miterlimit="10" d="M138.826,226.067
		c-13.447,7.89-35.556,8.072-49.132,0.406l-57.541-32.492c-13.576-7.666-24.74-26.694-24.809-42.284l-0.293-66.08
		c-0.069-15.59,10.876-34.801,24.323-42.691L88.838,9.211c13.447-7.89,35.556-8.072,49.132-0.406l57.54,32.492
		c13.576,7.666,24.74,26.694,24.809,42.284l0.293,66.08c0.069,15.59-10.876,34.801-24.323,42.691L138.826,226.067z"/>
</g>
<text transform="matrix(1 0 0 1 62.9443 155.1875)" font-family="'Lato-Regular'" font-size="28">   Team</text>
<path fill="#231F20" d="M140.941,84.087c-0.35-0.232-6.733-4.419-16.227-6.471c3.483-4.414,5.718-10.348,6.668-14.297
	c1.318-5.474,0.807-16.184-4.45-22.858c-3.073-3.9-7.373-5.961-12.433-5.961c-5.06,0-9.36,2.061-12.433,5.961
	c-5.257,6.673-5.768,17.384-4.45,22.858c0.95,3.949,3.186,9.883,6.669,14.297c-9.493,2.052-15.877,6.239-16.227,6.471
	c-1.284,0.856-1.856,2.451-1.408,3.926c0.446,1.476,1.808,2.487,3.35,2.487h49c1.542,0,2.904-1.01,3.35-2.487
	C142.797,86.538,142.225,84.943,140.941,84.087z M121.966,75.446l-0.572,0.727c-4.173,4.793-9.615,4.793-13.788,0l-0.572-0.727
	c-4.874-6.176-7.292-14.343-6.252-22.137c0.955-7.489,5.247-15.311,13.718-15.311c8.471,0,12.763,7.822,13.718,15.311
	C129.254,61.106,126.844,69.268,121.966,75.446z M90,86.999c0.241-0.16,6.171-4.048,15.025-5.962l4.348-0.942
	c1.55,1.021,3.254,1.654,5.127,1.654s3.577-0.634,5.127-1.654l4.348,0.942c8.786,1.898,14.694,5.744,15.025,5.962H90z"/>
</svg>
